<svg width="18" height="13" viewBox="0 0 18 13" fill="none" xmlns="http://www.w3.org/2000/svg">
<path d="M16.1287 0H2.06201C1.23595 0 0.562012 0.6732 0.562012 1.5V11.5C0.562012 12.324 1.23295 13 2.06201 13H16.1287C16.9527 13 17.6287 12.3291 17.6287 11.5V1.5C17.6287 0.676 16.9577 0 16.1287 0ZM15.9215 1L9.12715 7.79443L2.27398 1H15.9215ZM1.56201 11.2929V1.7023L6.37798 6.47697L1.56201 11.2929ZM2.26911 12L7.08811 7.181L8.77668 8.85507C8.97215 9.04887 9.28758 9.04823 9.48225 8.85353L11.1287 7.2071L15.9216 12H2.26911ZM16.6287 11.2929L11.8358 6.5L16.6287 1.70707V11.2929Z" fill="#78909C"/>
</svg>
