<svg width="16" height="13" viewBox="0 0 16 13" fill="none" xmlns="http://www.w3.org/2000/svg">
<path d="M12.5976 0H3.25C1.45795 0 0 1.45795 0 3.25V4.64286C0 4.89927 0.207876 5.10714 0.464286 5.10714H3.24019L1.79214 8.63036C1.25274 9.94277 1.29774 11.4281 1.9157 12.7056C1.9201 12.7107 2.02555 13 2.34929 13H13.4921C13.668 13 13.8287 12.9007 13.9073 12.7435C14.5579 11.4434 14.6105 9.92813 14.0514 8.58619L12.6023 5.10714H15.3833C15.6397 5.10714 15.8476 4.89927 15.8476 4.64286V3.25C15.8476 1.45795 14.3897 0 12.5976 0ZM13.1944 12.0714H2.64912C2.24572 11.0858 2.24383 9.97406 2.65104 8.98334L4.17161 5.28363C4.2332 5.1337 4.19454 5.2403 4.20646 2.78571H5.60238V4.17857C5.60238 4.43498 5.81026 4.64286 6.06667 4.64286H9.77786C10.0343 4.64286 10.2421 4.43498 10.2421 4.17857V2.78571H11.635C11.6472 5.23773 11.6076 5.13429 11.6707 5.28568L13.1943 8.94323C13.6131 9.94862 13.6103 11.0735 13.1944 12.0714ZM9.31357 2.78571V3.71429H6.53095V2.78571H9.31357ZM14.919 4.17857C13.0621 4.17928 12.6281 4.17572 12.5636 4.18021V2.32143C12.5636 2.06502 12.3557 1.85714 12.0993 1.85714H3.74214C3.48573 1.85714 3.27786 2.06502 3.27786 2.32143V4.18006C3.2409 4.17774 1.99234 4.17897 0.928571 4.17857V3.25C0.928571 1.96996 1.96996 0.928571 3.25 0.928571H12.5976C13.8777 0.928571 14.919 1.96996 14.919 3.25V4.17857Z" fill="#78909C"/>
<path d="M6.06536 6.43101C6.32178 6.43101 6.52965 6.22315 6.52965 5.96673C6.52965 5.71031 6.32178 5.50244 6.06536 5.50244C5.80894 5.50244 5.60107 5.71031 5.60107 5.96673C5.60107 6.22315 5.80894 6.43101 6.06536 6.43101Z" fill="#78909C"/>
<path d="M7.92229 6.43101C8.17871 6.43101 8.38658 6.22315 8.38658 5.96673C8.38658 5.71031 8.17871 5.50244 7.92229 5.50244C7.66588 5.50244 7.45801 5.71031 7.45801 5.96673C7.45801 6.22315 7.66588 6.43101 7.92229 6.43101Z" fill="#78909C"/>
<path d="M9.77972 6.43101C10.0361 6.43101 10.244 6.22315 10.244 5.96673C10.244 5.71031 10.0361 5.50244 9.77972 5.50244C9.5233 5.50244 9.31543 5.71031 9.31543 5.96673C9.31543 6.22315 9.5233 6.43101 9.77972 6.43101Z" fill="#78909C"/>
<path d="M6.06536 8.28843C6.32178 8.28843 6.52965 8.08057 6.52965 7.82415C6.52965 7.56773 6.32178 7.35986 6.06536 7.35986C5.80894 7.35986 5.60107 7.56773 5.60107 7.82415C5.60107 8.08057 5.80894 8.28843 6.06536 8.28843Z" fill="#78909C"/>
<path d="M7.92229 8.28843C8.17871 8.28843 8.38658 8.08057 8.38658 7.82415C8.38658 7.56773 8.17871 7.35986 7.92229 7.35986C7.66588 7.35986 7.45801 7.56773 7.45801 7.82415C7.45801 8.08057 7.66588 8.28843 7.92229 8.28843Z" fill="#78909C"/>
<path d="M9.77972 8.28843C10.0361 8.28843 10.244 8.08057 10.244 7.82415C10.244 7.56773 10.0361 7.35986 9.77972 7.35986C9.5233 7.35986 9.31543 7.56773 9.31543 7.82415C9.31543 8.08057 9.5233 8.28843 9.77972 8.28843Z" fill="#78909C"/>
<path d="M6.06536 10.1454C6.32178 10.1454 6.52965 9.9375 6.52965 9.68108C6.52965 9.42466 6.32178 9.2168 6.06536 9.2168C5.80894 9.2168 5.60107 9.42466 5.60107 9.68108C5.60107 9.9375 5.80894 10.1454 6.06536 10.1454Z" fill="#78909C"/>
<path d="M7.92229 10.1454C8.17871 10.1454 8.38658 9.9375 8.38658 9.68108C8.38658 9.42466 8.17871 9.2168 7.92229 9.2168C7.66588 9.2168 7.45801 9.42466 7.45801 9.68108C7.45801 9.9375 7.66588 10.1454 7.92229 10.1454Z" fill="#78909C"/>
<path d="M9.77972 10.1454C10.0361 10.1454 10.244 9.9375 10.244 9.68108C10.244 9.42466 10.0361 9.2168 9.77972 9.2168C9.5233 9.2168 9.31543 9.42466 9.31543 9.68108C9.31543 9.9375 9.5233 10.1454 9.77972 10.1454Z" fill="#78909C"/>
</svg>
