<svg width="18" height="18" viewBox="0 0 18 18" fill="none" xmlns="http://www.w3.org/2000/svg">
<path d="M7.35896 14.7179C8.84571 14.7179 10.239 14.2691 11.3984 13.5023L15.494 17.6073C15.7652 17.8691 16.1112 18 16.4852 18C17.2613 18 17.8317 17.3922 17.8317 16.6255C17.8317 16.2701 17.7101 15.9242 17.4483 15.6623L13.3808 11.5761C14.2223 10.3792 14.7179 8.92987 14.7179 7.35896C14.7179 3.31013 11.4078 0 7.35896 0C3.31948 0 0 3.31013 0 7.35896C0 11.4078 3.31013 14.7179 7.35896 14.7179ZM7.35896 12.7543C4.3948 12.7543 1.96364 10.3231 1.96364 7.35896C1.96364 4.3948 4.3948 1.96364 7.35896 1.96364C10.3231 1.96364 12.7543 4.3948 12.7543 7.35896C12.7543 10.3231 10.3231 12.7543 7.35896 12.7543Z" fill="#78909C"/>
</svg>
