<svg width="18" height="17" viewBox="0 0 18 17" fill="none" xmlns="http://www.w3.org/2000/svg">
<path d="M8.27803 0.068496C8.19213 0.023503 8.09661 0 7.99964 0C7.90268 0 7.80715 0.023503 7.72126 0.068496L0.959157 3.61394C0.649571 3.77633 0.400782 4.02192 0.23439 4.31471L7.99964 8.43932L15.7649 4.31391C15.5955 4.01569 15.3439 3.77244 15.0401 3.61314L8.27803 0.0676959V0.068496ZM0 12.1192V5.54905L7.71806 9.64887C7.80476 9.69496 7.90145 9.71906 7.99964 9.71906C8.09784 9.71906 8.19453 9.69496 8.28123 9.64887L15.9993 5.54905V12.1192C15.9993 12.8087 15.7254 13.47 15.2378 13.9576C14.7502 14.4451 14.0889 14.719 13.3994 14.719H2.59988C1.91035 14.719 1.24906 14.4451 0.761488 13.9576C0.273916 13.47 0 12.8087 0 12.1192ZM2.40949 15.519C2.64442 15.8871 2.96834 16.19 3.35132 16.3997C3.73429 16.6094 4.16395 16.7192 4.6006 16.719H13.8002C16.1201 16.719 18 14.839 18 12.5191V6.51941C18.0002 6.08267 17.8904 5.65293 17.6806 5.26984C17.4709 4.88676 17.1681 4.56267 16.8001 4.32751V12.5191C16.8001 12.9132 16.7224 13.3033 16.5716 13.6673C16.4208 14.0313 16.1998 14.3621 15.9211 14.6407C15.6425 14.9192 15.3117 15.1402 14.9476 15.2909C14.5836 15.4416 14.1934 15.5191 13.7994 15.519H2.40789H2.40949Z" fill="#78909C"/>
</svg>
