<svg width="18" height="13" viewBox="0 0 18 13" fill="none" xmlns="http://www.w3.org/2000/svg">
<path d="M9.00059 2.48685e-05C6.27729 -0.00388792 3.5579 0.453908 0.840076 1.38515C0.840076 1.38515 0.453883 2.26944 0.136556 3.00113C0.0696224 3.15333 0.0236832 3.31392 0 3.47849C1.89966 2.75854 3.80049 2.26553 5.69819 1.99163C5.87427 1.64731 6.23425 1.42037 6.63335 1.42037H7.31026C7.61937 1.42037 7.90109 1.5534 8.09673 1.76861C8.6993 1.74513 9.30187 1.74122 9.91227 1.76469C10.104 1.54949 10.3857 1.42037 10.687 1.42037H11.3639C11.7591 1.42037 12.1113 1.63948 12.2912 1.97207C14.1968 2.23031 16.0945 2.73115 18 3.47067C17.9726 3.31416 17.9296 3.14982 17.8631 3.00113C17.5461 2.26944 17.1588 1.38515 17.1588 1.38515C14.4394 0.46956 11.72 0.00276382 9.00059 2.48685e-05ZM6.63335 2.09728C6.44945 2.09728 6.28902 2.23031 6.25772 2.41422L5.99557 3.99498C5.52212 4.08106 5.06041 4.19062 4.61435 4.32366C4.2309 4.44104 3.9257 4.73059 3.78484 5.1023C3.24488 6.55003 1.87853 10.2124 1.87853 10.2124H16.1219C16.1219 10.2124 14.7602 6.55394 14.2163 5.1023C14.0794 4.73059 13.7703 4.43713 13.3868 4.32366C12.9408 4.19062 12.4791 4.08106 12.0056 3.99498L11.7395 2.41422C11.7082 2.23031 11.5517 2.09728 11.3639 2.09728H10.687C10.507 2.09728 10.3466 2.22249 10.3153 2.40248L10.2292 2.81723H7.76806L7.68198 2.40248C7.65067 2.22249 7.49416 2.09728 7.31026 2.09728H6.63335ZM13.0425 2.77419L12.9369 3.50197C13.156 3.55675 13.3712 3.61153 13.5785 3.67805C14.1263 3.92064 14.5841 4.29235 14.7954 4.74232L17.3309 5.34881C17.5813 4.96535 17.8631 4.61711 17.9687 4.1828C16.3253 3.53327 14.6859 3.05982 13.0425 2.77419ZM4.96259 2.79376C3.31922 3.08721 1.67546 3.55284 0.0316936 4.18671C0.151034 4.6445 0.407321 4.95361 0.669869 5.34881L3.20575 4.74232C3.4366 4.23366 3.87875 3.84238 4.41871 3.67805C4.63391 3.61544 4.84912 3.55675 5.06432 3.50197L4.96259 2.79376ZM9.00059 4.09671C10.7496 4.09671 12.1699 5.30576 12.1699 6.79654C12.1699 8.28731 10.7496 9.49245 9.00059 9.49245C7.25157 9.49245 5.82732 8.28731 5.82732 6.79654C5.82732 5.30576 7.25157 4.09671 9.00059 4.09671ZM9.00059 4.78536C7.82284 4.78536 6.86812 5.59922 6.86812 6.6009C6.86812 7.60257 7.82284 8.41643 9.00059 8.41643C10.1783 8.41643 11.1291 7.60257 11.1291 6.6009C11.1291 5.59922 10.1783 4.78536 9.00059 4.78536ZM1.87814 11.1084L2.72956 12.787H15.2689L16.1179 11.1084H1.87814Z" fill="#78909C"/>
</svg>
